<svg xmlns="http://www.w3.org/2000/svg" xmlns:xlink="http://www.w3.org/1999/xlink" width="500" zoomAndPan="magnify" viewBox="0 0 375 374.999991" height="500" preserveAspectRatio="xMidYMid meet" version="1.0"><defs><g/></defs><g fill="#000000" fill-opacity="1"><g transform="translate(131.566941, 217.211268)"><g><path d="M 88.320312 -23.808594 L 107.070312 -23.808594 L 107.070312 -97.570312 C 107.070312 -98.066406 106.578125 -98.683594 105.710938 -98.683594 L 89.429688 -98.683594 C 88.9375 -98.683594 88.320312 -98.3125 88.074219 -97.941406 L 54.398438 -25.65625 L 18.996094 -97.941406 C 18.871094 -98.3125 18.132812 -98.683594 17.761719 -98.683594 L 1.234375 -98.683594 C 0.371094 -98.683594 0 -98.066406 0 -97.570312 L 0 -1.109375 C 0 -0.617188 0.371094 0 1.234375 0 L 17.515625 0 C 18.257812 0 18.871094 -0.617188 18.871094 -1.109375 L 18.871094 -56.496094 L 45.640625 -4.6875 C 45.761719 -4.316406 46.503906 -3.949219 46.875 -3.949219 L 62.046875 -3.949219 C 62.417969 -3.949219 63.03125 -4.316406 63.15625 -4.6875 L 88.320312 -55.136719 Z M 88.320312 -23.808594 "/></g></g></g><g fill="#000000" fill-opacity="1"><g transform="translate(40.103982, 253.133508)"><g><path d="M 18.34375 0 L 18.328125 -10.703125 L 13.078125 -1.890625 L 11.21875 -1.890625 L 5.984375 -10.46875 L 5.984375 0 L 2.109375 0 L 2.109375 -17.84375 L 5.53125 -17.84375 L 12.203125 -6.75 L 18.78125 -17.84375 L 22.171875 -17.84375 L 22.21875 0 Z M 18.34375 0 "/></g></g></g><g fill="#000000" fill-opacity="1"><g transform="translate(69.939592, 253.133508)"><g><path d="M 10.75 0.3125 C 8.90625 0.3125 7.238281 -0.0859375 5.75 -0.890625 C 4.257812 -1.691406 3.09375 -2.789062 2.25 -4.1875 C 1.414062 -5.59375 1 -7.171875 1 -8.921875 C 1 -10.671875 1.414062 -12.242188 2.25 -13.640625 C 3.09375 -15.046875 4.257812 -16.144531 5.75 -16.9375 C 7.238281 -17.738281 8.90625 -18.140625 10.75 -18.140625 C 12.601562 -18.140625 14.269531 -17.738281 15.75 -16.9375 C 17.226562 -16.144531 18.390625 -15.046875 19.234375 -13.640625 C 20.085938 -12.242188 20.515625 -10.671875 20.515625 -8.921875 C 20.515625 -7.171875 20.085938 -5.59375 19.234375 -4.1875 C 18.390625 -2.789062 17.226562 -1.691406 15.75 -0.890625 C 14.269531 -0.0859375 12.601562 0.3125 10.75 0.3125 Z M 10.75 -3.21875 C 11.800781 -3.21875 12.753906 -3.457031 13.609375 -3.9375 C 14.460938 -4.414062 15.128906 -5.085938 15.609375 -5.953125 C 16.085938 -6.828125 16.328125 -7.816406 16.328125 -8.921875 C 16.328125 -10.023438 16.085938 -11.007812 15.609375 -11.875 C 15.128906 -12.738281 14.460938 -13.410156 13.609375 -13.890625 C 12.753906 -14.378906 11.800781 -14.625 10.75 -14.625 C 9.695312 -14.625 8.742188 -14.378906 7.890625 -13.890625 C 7.046875 -13.410156 6.378906 -12.738281 5.890625 -11.875 C 5.410156 -11.007812 5.171875 -10.023438 5.171875 -8.921875 C 5.171875 -7.816406 5.410156 -6.828125 5.890625 -5.953125 C 6.378906 -5.085938 7.046875 -4.414062 7.890625 -3.9375 C 8.742188 -3.457031 9.695312 -3.21875 10.75 -3.21875 Z M 10.75 -3.21875 "/></g></g></g><g fill="#000000" fill-opacity="1"><g transform="translate(96.947312, 253.133508)"><g><path d="M 2.109375 -17.84375 L 10.21875 -17.84375 C 12.15625 -17.84375 13.863281 -17.472656 15.34375 -16.734375 C 16.832031 -15.992188 17.988281 -14.953125 18.8125 -13.609375 C 19.644531 -12.265625 20.0625 -10.703125 20.0625 -8.921875 C 20.0625 -7.140625 19.644531 -5.578125 18.8125 -4.234375 C 17.988281 -2.890625 16.832031 -1.847656 15.34375 -1.109375 C 13.863281 -0.367188 12.15625 0 10.21875 0 L 2.109375 0 Z M 10.015625 -3.390625 C 11.796875 -3.390625 13.21875 -3.882812 14.28125 -4.875 C 15.34375 -5.875 15.875 -7.222656 15.875 -8.921875 C 15.875 -10.617188 15.34375 -11.960938 14.28125 -12.953125 C 13.21875 -13.953125 11.796875 -14.453125 10.015625 -14.453125 L 6.25 -14.453125 L 6.25 -3.390625 Z M 10.015625 -3.390625 "/></g></g></g><g fill="#000000" fill-opacity="1"><g transform="translate(123.496463, 253.133508)"><g><path d="M 13.859375 -3.828125 L 5.578125 -3.828125 L 4 0 L -0.234375 0 L 7.71875 -17.84375 L 11.796875 -17.84375 L 19.78125 0 L 15.4375 0 Z M 12.5625 -6.953125 L 9.734375 -13.78125 L 6.90625 -6.953125 Z M 12.5625 -6.953125 "/></g></g></g><g fill="#000000" fill-opacity="1"><g transform="translate(148.517026, 253.133508)"><g/></g></g><g fill="#000000" fill-opacity="1"><g transform="translate(161.232492, 253.133508)"><g><path d="M 6.25 -14.53125 L 6.25 -9.8125 L 14.5 -9.8125 L 14.5 -6.5 L 6.25 -6.5 L 6.25 0 L 2.109375 0 L 2.109375 -17.84375 L 15.59375 -17.84375 L 15.59375 -14.53125 Z M 6.25 -14.53125 "/></g></g></g><g fill="#000000" fill-opacity="1"><g transform="translate(183.017548, 253.133508)"><g><path d="M 15.921875 -3.3125 L 15.921875 0 L 2.109375 0 L 2.109375 -17.84375 L 15.59375 -17.84375 L 15.59375 -14.53125 L 6.21875 -14.53125 L 6.21875 -10.65625 L 14.5 -10.65625 L 14.5 -7.4375 L 6.21875 -7.4375 L 6.21875 -3.3125 Z M 15.921875 -3.3125 "/></g></g></g><g fill="#000000" fill-opacity="1"><g transform="translate(205.617864, 253.133508)"><g><path d="M 18.34375 0 L 18.328125 -10.703125 L 13.078125 -1.890625 L 11.21875 -1.890625 L 5.984375 -10.46875 L 5.984375 0 L 2.109375 0 L 2.109375 -17.84375 L 5.53125 -17.84375 L 12.203125 -6.75 L 18.78125 -17.84375 L 22.171875 -17.84375 L 22.21875 0 Z M 18.34375 0 "/></g></g></g><g fill="#000000" fill-opacity="1"><g transform="translate(235.453476, 253.133508)"><g><path d="M 2.109375 -17.84375 L 6.25 -17.84375 L 6.25 0 L 2.109375 0 Z M 2.109375 -17.84375 "/></g></g></g><g fill="#000000" fill-opacity="1"><g transform="translate(249.315384, 253.133508)"><g><path d="M 18.46875 -17.84375 L 18.46875 0 L 15.09375 0 L 6.1875 -10.828125 L 6.1875 0 L 2.109375 0 L 2.109375 -17.84375 L 5.53125 -17.84375 L 14.40625 -7.015625 L 14.40625 -17.84375 Z M 18.46875 -17.84375 "/></g></g></g><g fill="#000000" fill-opacity="1"><g transform="translate(275.405955, 253.133508)"><g><path d="M 2.109375 -17.84375 L 6.25 -17.84375 L 6.25 0 L 2.109375 0 Z M 2.109375 -17.84375 "/></g></g></g><g fill="#000000" fill-opacity="1"><g transform="translate(289.267864, 253.133508)"><g><path d="M 18.46875 -17.84375 L 18.46875 0 L 15.09375 0 L 6.1875 -10.828125 L 6.1875 0 L 2.109375 0 L 2.109375 -17.84375 L 5.53125 -17.84375 L 14.40625 -7.015625 L 14.40625 -17.84375 Z M 18.46875 -17.84375 "/></g></g></g><g fill="#000000" fill-opacity="1"><g transform="translate(315.35842, 253.133508)"><g><path d="M 13.859375 -3.828125 L 5.578125 -3.828125 L 4 0 L -0.234375 0 L 7.71875 -17.84375 L 11.796875 -17.84375 L 19.78125 0 L 15.4375 0 Z M 12.5625 -6.953125 L 9.734375 -13.78125 L 6.90625 -6.953125 Z M 12.5625 -6.953125 "/></g></g></g><g fill="#000000" fill-opacity="1"><g transform="translate(143.7388, 288.310051)"><g><path d="M 3.53125 -8.203125 L 3.53125 -5.546875 L 8.1875 -5.546875 L 8.1875 -3.671875 L 3.53125 -3.671875 L 3.53125 0 L 1.1875 0 L 1.1875 -10.078125 L 8.8125 -10.078125 L 8.8125 -8.203125 Z M 3.53125 -8.203125 "/></g></g></g><g fill="#000000" fill-opacity="1"><g transform="translate(156.041988, 288.310051)"><g><path d="M 7.828125 -2.15625 L 3.15625 -2.15625 L 2.265625 0 L -0.125 0 L 4.359375 -10.078125 L 6.65625 -10.078125 L 11.171875 0 L 8.71875 0 Z M 7.09375 -3.921875 L 5.5 -7.78125 L 3.90625 -3.921875 Z M 7.09375 -3.921875 "/></g></g></g><g fill="#000000" fill-opacity="1"><g transform="translate(170.172349, 288.310051)"><g><path d="M 4.5 0.171875 C 3.707031 0.171875 2.9375 0.0664062 2.1875 -0.140625 C 1.445312 -0.359375 0.851562 -0.644531 0.40625 -1 L 1.1875 -2.75 C 1.625 -2.4375 2.140625 -2.179688 2.734375 -1.984375 C 3.328125 -1.796875 3.921875 -1.703125 4.515625 -1.703125 C 5.179688 -1.703125 5.671875 -1.796875 5.984375 -1.984375 C 6.304688 -2.179688 6.46875 -2.445312 6.46875 -2.78125 C 6.46875 -3.019531 6.375 -3.21875 6.1875 -3.375 C 6 -3.53125 5.753906 -3.65625 5.453125 -3.75 C 5.160156 -3.851562 4.769531 -3.960938 4.28125 -4.078125 C 3.507812 -4.253906 2.878906 -4.429688 2.390625 -4.609375 C 1.898438 -4.796875 1.476562 -5.09375 1.125 -5.5 C 0.78125 -5.90625 0.609375 -6.441406 0.609375 -7.109375 C 0.609375 -7.691406 0.765625 -8.21875 1.078125 -8.6875 C 1.390625 -9.164062 1.863281 -9.546875 2.5 -9.828125 C 3.144531 -10.109375 3.925781 -10.25 4.84375 -10.25 C 5.488281 -10.25 6.117188 -10.171875 6.734375 -10.015625 C 7.347656 -9.859375 7.882812 -9.640625 8.34375 -9.359375 L 7.625 -7.578125 C 6.695312 -8.109375 5.765625 -8.375 4.828125 -8.375 C 4.179688 -8.375 3.703125 -8.269531 3.390625 -8.0625 C 3.078125 -7.851562 2.921875 -7.570312 2.921875 -7.21875 C 2.921875 -6.875 3.097656 -6.617188 3.453125 -6.453125 C 3.816406 -6.285156 4.367188 -6.117188 5.109375 -5.953125 C 5.878906 -5.773438 6.507812 -5.59375 7 -5.40625 C 7.488281 -5.226562 7.90625 -4.941406 8.25 -4.546875 C 8.601562 -4.148438 8.78125 -3.617188 8.78125 -2.953125 C 8.78125 -2.378906 8.617188 -1.851562 8.296875 -1.375 C 7.972656 -0.894531 7.488281 -0.515625 6.84375 -0.234375 C 6.207031 0.0351562 5.425781 0.171875 4.5 0.171875 Z M 4.5 0.171875 "/></g></g></g><g fill="#000000" fill-opacity="1"><g transform="translate(182.461159, 288.310051)"><g><path d="M 10.4375 -10.078125 L 10.4375 0 L 8.109375 0 L 8.109375 -4.125 L 3.53125 -4.125 L 3.53125 0 L 1.1875 0 L 1.1875 -10.078125 L 3.53125 -10.078125 L 3.53125 -6.109375 L 8.109375 -6.109375 L 8.109375 -10.078125 Z M 10.4375 -10.078125 "/></g></g></g><g fill="#000000" fill-opacity="1"><g transform="translate(197.195784, 288.310051)"><g><path d="M 1.1875 -10.078125 L 3.53125 -10.078125 L 3.53125 0 L 1.1875 0 Z M 1.1875 -10.078125 "/></g></g></g><g fill="#000000" fill-opacity="1"><g transform="translate(205.024583, 288.310051)"><g><path d="M 6.078125 0.171875 C 5.023438 0.171875 4.078125 -0.0507812 3.234375 -0.5 C 2.398438 -0.957031 1.742188 -1.578125 1.265625 -2.359375 C 0.796875 -3.148438 0.5625 -4.039062 0.5625 -5.03125 C 0.5625 -6.019531 0.796875 -6.910156 1.265625 -7.703125 C 1.742188 -8.492188 2.398438 -9.113281 3.234375 -9.5625 C 4.078125 -10.019531 5.023438 -10.25 6.078125 -10.25 C 7.117188 -10.25 8.054688 -10.019531 8.890625 -9.5625 C 9.722656 -9.113281 10.378906 -8.492188 10.859375 -7.703125 C 11.335938 -6.910156 11.578125 -6.019531 11.578125 -5.03125 C 11.578125 -4.039062 11.335938 -3.148438 10.859375 -2.359375 C 10.378906 -1.578125 9.722656 -0.957031 8.890625 -0.5 C 8.054688 -0.0507812 7.117188 0.171875 6.078125 0.171875 Z M 6.078125 -1.8125 C 6.671875 -1.8125 7.207031 -1.945312 7.6875 -2.21875 C 8.164062 -2.5 8.539062 -2.878906 8.8125 -3.359375 C 9.082031 -3.847656 9.21875 -4.40625 9.21875 -5.03125 C 9.21875 -5.65625 9.082031 -6.210938 8.8125 -6.703125 C 8.539062 -7.191406 8.164062 -7.570312 7.6875 -7.84375 C 7.207031 -8.125 6.671875 -8.265625 6.078125 -8.265625 C 5.484375 -8.265625 4.941406 -8.125 4.453125 -7.84375 C 3.972656 -7.570312 3.597656 -7.191406 3.328125 -6.703125 C 3.054688 -6.210938 2.921875 -5.65625 2.921875 -5.03125 C 2.921875 -4.40625 3.054688 -3.847656 3.328125 -3.359375 C 3.597656 -2.878906 3.972656 -2.5 4.453125 -2.21875 C 4.941406 -1.945312 5.484375 -1.8125 6.078125 -1.8125 Z M 6.078125 -1.8125 "/></g></g></g><g fill="#000000" fill-opacity="1"><g transform="translate(220.277136, 288.310051)"><g><path d="M 10.4375 -10.078125 L 10.4375 0 L 8.515625 0 L 3.5 -6.109375 L 3.5 0 L 1.1875 0 L 1.1875 -10.078125 L 3.125 -10.078125 L 8.125 -3.953125 L 8.125 -10.078125 Z M 10.4375 -10.078125 "/></g></g></g><path stroke-linecap="butt" transform="matrix(0.984711, 0, 0, 0.981634, 251.99533, 282.002705)" fill="none" stroke-linejoin="miter" d="M 0.000776063 1.000036 L 54.839198 1.000036 " stroke="#000000" stroke-width="2" stroke-opacity="1" stroke-miterlimit="4"/><path stroke-linecap="butt" transform="matrix(0.984711, 0, 0, 0.981634, 69.810043, 282.002705)" fill="none" stroke-linejoin="miter" d="M -0.00147187 1.000036 L 54.83695 1.000036 " stroke="#000000" stroke-width="2" stroke-opacity="1" stroke-miterlimit="4"/></svg>